<svg width="20" height="20" viewBox="0 0 20 20" fill="none" xmlns="http://www.w3.org/2000/svg">
<g clip-path="url(#clip0)">
<path d="M19.7915 5.20087C19.791 5.20045 19.7906 5.20004 19.7902 5.19957L19.7895 5.20029L16.9324 2.34321C16.6487 2.06917 16.1965 2.07703 15.9225 2.36079C15.6551 2.63759 15.6551 3.07641 15.9225 3.35321L17.561 4.99174H13.5711C10.8111 4.99488 8.57441 7.23155 8.57123 9.99161C8.56889 11.963 6.97133 13.5606 4.99992 13.5629H0.714322C0.319788 13.5629 0 13.8827 0 14.2772C0 14.6717 0.319787 14.9915 0.71428 14.9915H4.99988C7.7599 14.9884 9.99657 12.7517 9.99975 9.99161C10.0021 8.0202 11.5997 6.42264 13.5711 6.4203H17.5609L15.9231 8.05812C15.6394 8.33216 15.6315 8.78437 15.9056 9.06808C16.1796 9.35183 16.6318 9.3597 16.9155 9.08561C16.9215 9.07988 16.9273 9.07402 16.9331 9.06808L19.7902 6.211C20.0695 5.93239 20.07 5.48015 19.7915 5.20087Z" fill="black"/>
<path d="M19.7916 13.772C19.7912 13.7716 19.7908 13.7712 19.7904 13.7708L19.7896 13.7715L16.9326 10.9144C16.6488 10.6403 16.1966 10.6482 15.9226 10.932C15.6553 11.2088 15.6553 11.6476 15.9226 11.9243L17.5611 13.5629H13.5713C12.6925 13.5635 11.8445 13.2397 11.1899 12.6536C10.8935 12.3932 10.4423 12.4224 10.1819 12.7187C9.92489 13.0112 9.94946 13.4555 10.2371 13.7179C11.1535 14.5387 12.3409 14.9923 13.5713 14.9914H17.5611L15.9233 16.6292C15.6396 16.9033 15.6317 17.3554 15.9057 17.6392C16.1798 17.9229 16.6319 17.9308 16.9157 17.6568C16.9216 17.651 16.9275 17.6452 16.9333 17.6392L19.7904 14.7821C20.0696 14.5035 20.0702 14.0513 19.7916 13.772Z" fill="black"/>
<path d="M8.33406 6.26525C7.4176 5.44437 6.23023 4.99083 4.99988 4.99171H0.71428C0.319787 4.99171 0 5.3115 0 5.70599C0 6.10048 0.319787 6.42027 0.71428 6.42027H4.99988C5.87859 6.41964 6.72659 6.7434 7.38123 7.32953C7.67758 7.58993 8.12886 7.56076 8.38926 7.26445C8.64623 6.97195 8.62166 6.52762 8.33406 6.26525Z" fill="black"/>
</g>
<defs>
<clipPath id="clip0">
<rect width="20" height="20" fill="white"/>
</clipPath>
</defs>
</svg>
