<svg width="20" height="20" viewBox="0 0 20 20" fill="none" xmlns="http://www.w3.org/2000/svg">
<path d="M14.3198 4.31958C13.9244 4.31958 13.6039 4.64009 13.6039 5.03556C13.6039 5.43103 13.9244 5.75153 14.3198 5.75153C16.6623 5.75153 18.568 7.65728 18.568 9.99974C18.568 12.3425 16.6621 14.2482 14.3198 14.2482H9.06925C8.67378 14.2482 8.35327 14.5687 8.35327 14.9642C8.35327 15.3596 8.67378 15.6801 9.06925 15.6801H14.3198C17.4518 15.6801 20 13.1319 20 9.9997C20 6.86778 17.4518 4.31958 14.3198 4.31958Z" fill="black"/>
<path d="M10.0137 14.9625L12.7633 11.7546C13.0208 11.4546 12.986 11.0026 12.6858 10.7453C12.386 10.4881 11.9337 10.5222 11.6765 10.8229L8.52586 14.4983C8.29531 14.7671 8.29602 15.164 8.52731 15.432L11.6777 19.0835C11.8192 19.2475 12.019 19.3317 12.2199 19.3317C12.3858 19.3317 12.5521 19.2747 12.6874 19.1577C12.9867 18.8995 13.0201 18.4475 12.7619 18.1479L10.0137 14.9625Z" fill="black"/>
<path d="M10.9308 4.31958H5.68019C2.5482 4.31958 0 6.86778 0 9.99974C0 13.132 2.5482 15.6802 5.68019 15.6802C6.07566 15.6802 6.39617 15.3597 6.39617 14.9642C6.39617 14.5687 6.07566 14.2482 5.68019 14.2482C3.3377 14.2482 1.43199 12.3425 1.43199 9.99977C1.43199 7.65728 3.33773 5.75157 5.68019 5.75157H10.9308C11.3263 5.75157 11.6468 5.43106 11.6468 5.0356C11.6468 4.64013 11.3263 4.31958 10.9308 4.31958Z" fill="black"/>
<path d="M11.4732 4.56805L8.32281 0.916485C8.0648 0.617188 7.6123 0.58379 7.31301 0.842032C7.01347 1.10051 6.98008 1.55254 7.23855 1.85184L9.98652 5.03727L7.23687 8.24539C6.97961 8.54563 7.01445 8.99766 7.31469 9.25492C7.44976 9.37066 7.61539 9.42723 7.78031 9.42723C7.98199 9.42723 8.18269 9.34227 8.32445 9.17711L11.4746 5.50168C11.7051 5.23297 11.7044 4.83606 11.4732 4.56805Z" fill="black"/>
</svg>
